<?xml version="1.0" encoding="UTF-8" standalone="no"?>
<!-- Created with Inkscape (http://www.inkscape.org/) -->

<svg
   width="120"
   height="120"
   viewBox="0 0 120 120"
   version="1.1"
   id="svg1"
   inkscape:version="1.3.2 (091e20e, 2023-11-25, custom)"
   sodipodi:docname="drawing.svg"
   xmlns:inkscape="http://www.inkscape.org/namespaces/inkscape"
   xmlns:sodipodi="http://sodipodi.sourceforge.net/DTD/sodipodi-0.dtd"
   xmlns="http://www.w3.org/2000/svg"
   xmlns:svg="http://www.w3.org/2000/svg">
  <sodipodi:namedview
     id="namedview1"
     pagecolor="#505050"
     bordercolor="#eeeeee"
     borderopacity="1"
     inkscape:showpageshadow="0"
     inkscape:pageopacity="0"
     inkscape:pagecheckerboard="0"
     inkscape:deskcolor="#505050"
     inkscape:document-units="px"
     inkscape:zoom="5.6568542"
     inkscape:cx="51.265242"
     inkscape:cy="70.799067"
     inkscape:window-width="1920"
     inkscape:window-height="1057"
     inkscape:window-x="-8"
     inkscape:window-y="-8"
     inkscape:window-maximized="1"
     inkscape:current-layer="layer1"
     showguides="false" />
  <defs
     id="defs1" />
  <g
     inkscape:label="Layer 1"
     inkscape:groupmode="layer"
     id="layer1">
    <path
       style="fill:#353030;fill-opacity:1;fill-rule:evenodd;stroke-width:13;paint-order:stroke fill markers"
       d="m 62.906297,25.09147 c -1.097063,-3.637969 8.743061,-5.925585 11.807276,-5.890904 3.064219,0.03468 5.516302,1.775473 9.618201,7.401395 3.62827,4.976316 -0.76812,7.441106 6.836638,15.663027 5.754768,6.221796 1.3853,6.197772 0.369865,6.742759 C 88.542155,50.615774 80.384741,38.567132 77.637945,36.401051 74.955327,34.285584 64.952377,29.479141 62.906297,25.09147 Z"
       id="path12-6"
       sodipodi:nodetypes="csssssc" />
    <ellipse
       style="fill:#4c4545;fill-opacity:1;fill-rule:evenodd;stroke-width:13;paint-order:stroke fill markers"
       id="path6"
       cx="81.124611"
       cy="-20.614302"
       rx="35.066151"
       ry="32.127777"
       transform="rotate(58.552973)" />
    <ellipse
       style="fill:#e4e1cd;fill-opacity:1;fill-rule:evenodd;stroke-width:13;paint-order:stroke fill markers"
       id="path3"
       cx="20.236422"
       cy="66.530777"
       rx="7.4564457"
       ry="14.843205"
       transform="rotate(-24.586179)" />
    <ellipse
       style="fill:#e4e1cd;fill-opacity:1;fill-rule:evenodd;stroke-width:13;paint-order:stroke fill markers"
       id="path4"
       cx="42.396702"
       cy="66.182343"
       rx="7.1777005"
       ry="14.355401"
       transform="rotate(-24.586179)" />
    <ellipse
       style="fill:#000000;fill-opacity:1;fill-rule:evenodd;stroke-width:13;paint-order:stroke fill markers"
       id="path5"
       cx="8.6139374"
       cy="71.183258"
       rx="4.8780489"
       ry="11.63763"
       transform="rotate(-32.066011)" />
    <ellipse
       style="fill:#000000;fill-opacity:1;fill-rule:evenodd;stroke-width:13;paint-order:stroke fill markers"
       id="path5-0"
       cx="30.936316"
       cy="73.607422"
       rx="4.8780489"
       ry="11.63763"
       transform="rotate(-32.066011)" />
    <ellipse
       style="fill:#161616;fill-opacity:1;fill-rule:evenodd;stroke-width:13;paint-order:stroke fill markers"
       id="path5-0-6"
       cx="49.39677"
       cy="73.473694"
       rx="8.1782169"
       ry="6.7818823"
       transform="rotate(-11.933803)" />
    <path
       style="fill:#353030;fill-opacity:1;fill-rule:evenodd;stroke-width:13;paint-order:stroke fill markers"
       d="m 31.991379,42.18161 c -2.408695,-2.9388 -9.79334,3.955267 -11.472719,6.51853 -1.679379,2.563262 -1.6011,5.569411 0.782932,12.111043 2.108757,5.786296 6.60584,3.510408 9.192388,14.407301 1.957324,8.24603 4.373175,4.605078 5.391689,4.065864 C 38.890873,77.693357 33.435445,64.204417 33.168378,60.716514 32.907551,57.310107 34.493442,46.326217 31.991379,42.18161 Z"
       id="path12"
       sodipodi:nodetypes="csssssc" />
  </g>
</svg>
